<?xml version="1.0" standalone="no"?>
<!DOCTYPE svg PUBLIC "-//W3C//DTD SVG 20010904//EN"
 "http://www.w3.org/TR/2001/REC-SVG-20010904/DTD/svg10.dtd">
<svg version="1.0" xmlns="http://www.w3.org/2000/svg"
 width="512.000000pt" height="512.000000pt" viewBox="0 0 512.000000 512.000000"
 preserveAspectRatio="xMidYMid meet">

<g transform="translate(0.000000,512.000000) scale(0.100000,-0.100000)"
fill="#000000" stroke="none">
<path d="M2441 4694 c-121 -32 -128 -39 -1192 -1020 -563 -520 -1032 -959
-1041 -977 -50 -90 0 -200 103 -227 55 -15 100 0 165 55 l54 47 0 -875 c0
-841 1 -877 20 -938 49 -161 178 -281 348 -324 51 -13 264 -15 1688 -13 l1629
3 58 22 c149 57 263 181 301 328 14 51 16 175 16 928 l0 869 53 -46 c79 -70
142 -80 215 -36 68 41 93 137 55 208 -10 17 -479 457 -1041 976 -1092 1007
-1081 998 -1210 1025 -71 15 -155 13 -221 -5z m182 -317 c16 -7 392 -347 837
-757 l809 -745 0 -1011 1 -1011 -22 -33 c-13 -18 -36 -43 -51 -54 -28 -20 -40
-21 -452 -24 l-424 -3 -3 693 c-3 688 -3 693 -25 740 -30 66 -104 141 -166
169 l-52 24 -515 0 -515 0 -52 -24 c-62 -28 -136 -103 -166 -169 -22 -47 -22
-52 -25 -740 l-3 -693 -424 3 c-412 3 -424 4 -452 24 -15 11 -38 36 -50 54
l-23 33 0 1008 0 1009 808 746 c444 410 821 752 837 760 37 16 91 17 128 1z
m377 -2982 l0 -655 -440 0 -440 0 0 655 0 655 440 0 440 0 0 -655z"/>
</g>
</svg>
